# Blender 5.1.1
# www.blender.org
mtllib coda_dog.mtl
o coda
v 0.000000 0.435926 -0.174219
v 0.021211 0.389667 -0.182840
v 0.000000 0.379739 -0.181553
v 0.020224 0.427350 -0.172137
v 0.000000 0.386213 -0.235440
v 0.000000 0.310302 -0.202851
v 0.032007 0.372051 -0.228544
v 0.033662 0.330136 -0.211366
v 0.000000 0.338036 -0.390607
v 0.033374 0.311642 -0.300555
v 0.036798 0.342679 -0.310006
v 0.000000 0.355382 -0.314186
v 0.000000 0.291030 -0.295305
v -0.021211 0.389667 -0.182840
v -0.020224 0.427350 -0.172137
v -0.032007 0.372051 -0.228544
v -0.033662 0.330136 -0.211366
v -0.033374 0.311642 -0.300555
v -0.036798 0.342679 -0.310006
v 0.000000 0.310302 -0.202851
v 0.033662 0.330136 -0.211366
v 0.033374 0.311642 -0.300555
v 0.000000 0.291030 -0.295305
vn 0.4061 0.7015 -0.5856
vn 0.8998 -0.1822 -0.3965
vn 0.8993 -0.1822 -0.3975
vn 0.9004 -0.1823 -0.3951
vn 0.9761 0.0496 0.2114
vn 0.3287 -0.3126 0.8912
vn 0.3741 0.9102 -0.1778
vn 0.3760 0.9089 -0.1803
vn 0.3774 0.9079 -0.1826
vn 0.4990 -0.7824 -0.3726
vn 0.4990 -0.7826 -0.3722
vn 0.4988 -0.7830 -0.3715
vn 0.3888 0.8662 -0.3139
vn 0.9995 -0.0133 0.0301
vn -0.4061 0.7015 -0.5856
vn -0.8998 -0.1822 -0.3965
vn -0.9004 -0.1823 -0.3951
vn -0.8993 -0.1822 -0.3975
vn -0.9761 0.0496 0.2114
vn -0.3287 -0.3126 0.8912
vn -0.3741 0.9102 -0.1778
vn -0.3774 0.9079 -0.1826
vn -0.3760 0.9089 -0.1803
vn -0.4990 -0.7824 -0.3726
vn -0.4988 -0.7830 -0.3715
vn -0.4990 -0.7826 -0.3722
vn -0.5345 -0.8276 0.1712
vn -0.3888 0.8662 -0.3139
vn -0.9995 -0.0133 0.0301
vn 0.5345 -0.8276 0.1712
vt 0.372549 0.488905
vt 0.395356 0.492804
vt 0.405528 0.573842
vt 0.372311 0.571960
vt 0.401560 0.645491
vt 0.426152 0.649624
vt 0.371893 0.715326
vt 0.419065 0.526427
vt 0.445045 0.581290
vt 0.442507 0.520982
vt 0.480687 0.580096
vt 0.372098 0.645340
vt 0.459343 0.666075
vt 0.339085 0.573650
vt 0.349721 0.492675
vt 0.342636 0.645320
vt 0.318020 0.649309
vt 0.299526 0.580868
vt 0.325823 0.526159
vt 0.263894 0.579466
vt 0.302415 0.520579
vt 0.284735 0.665565
s 0
usemtl low_poly_dog
f 1/1/1 4/2/1 7/3/1 5/4/1
f 11/5/2 10/6/3 9/7/4
f 4/2/5 2/8/5 8/9/5 7/3/5
f 12/12/7 11/5/8 9/7/9
f 5/4/13 7/3/13 11/5/13 12/12/13
f 7/3/14 8/9/14 10/6/14 11/5/14
f 1/1/15 5/4/15 16/14/15 15/15/15
f 19/16/16 9/7/17 18/17/18
f 15/15/19 16/14/19 17/18/19 14/19/19
f 12/12/21 9/7/22 19/16/23
f 5/4/28 12/12/28 19/16/28 16/14/28
f 16/14/29 19/16/29 18/17/29 17/18/29
usemtl low_poly_dog.002
f 2/8/6 3/10/6 6/11/6 8/9/6
f 10/6/10 13/13/11 9/7/12
f 14/19/20 17/18/20 6/20/20 3/21/20
f 18/17/24 9/7/25 13/22/26
f 17/18/27 18/17/27 13/22/27 6/20/27
f 21/9/30 20/11/30 23/13/30 22/6/30
