# Blender 5.1.1
# www.blender.org
mtllib orecchio_sx_dog.mtl
o orecchio_sx
v 0.074580 0.658519 0.220105
v 0.046936 0.700701 0.230862
v 0.084871 0.650204 0.261488
v 0.031120 0.713845 0.250722
v 0.053985 0.694732 0.274414
v 0.061333 0.684128 0.222199
v 0.068946 0.675232 0.271177
v 0.030230 0.710009 0.273232
v 0.096510 0.682215 0.232028
v 0.102736 0.675526 0.251165
v 0.093984 0.788724 0.272224
v 0.075914 0.777381 0.274079
v 0.095945 0.782793 0.279302
v 0.102300 0.722344 0.248199
v 0.106623 0.720030 0.258840
v 0.076271 0.772466 0.282609
v 0.054613 0.739400 0.278186
v 0.062849 0.706269 0.259663
v 0.052965 0.744676 0.267827
v 0.065989 0.739852 0.241868
v 0.076374 0.716302 0.227519
v 0.074184 0.691880 0.253346
vn 0.3517 0.4283 -0.8324
vn -0.5964 0.6078 -0.5243
vn 0.3656 -0.3701 0.8540
vn 0.9413 -0.0126 -0.3373
vn 0.9472 0.2198 -0.2336
vn -0.3495 0.7443 0.5691
vn 0.1113 -0.2974 0.9482
vn -0.0210 -0.1681 0.9855
vn -0.8012 0.4869 0.3478
vn 0.5723 0.2341 -0.7859
vn 0.2731 0.1141 -0.9552
vn 0.7341 -0.5847 -0.3453
vn -0.8109 0.5589 0.1736
vn 0.4864 0.2860 0.8256
vn 0.6960 0.3659 0.6178
vn 0.3746 -0.0833 0.9234
vn -0.5748 0.5713 -0.5858
vn -0.2821 0.3402 -0.8970
vt 0.325625 0.048430
vt 0.349381 0.058784
vt 0.359041 0.096849
vt 0.316100 0.076562
vt 0.373943 0.059754
vt 0.367135 0.090524
vt 0.384299 0.059472
vt 0.415771 0.042392
vt 0.382904 0.112536
vt 0.376303 0.093570
vt 0.276569 0.058216
vt 0.292469 0.045273
vt 0.310851 0.085688
vt 0.360552 0.107283
vt 0.432891 0.041777
vt 0.433817 0.079900
vt 0.461413 0.048110
vt 0.279391 0.019463
vt 0.311213 0.018027
vt 0.251100 0.037632
vt 0.365341 0.021741
vt 0.387515 0.023501
vt 0.438298 0.020092
vt 0.467114 0.018442
vt 0.414598 0.022676
vt 0.336201 0.018842
s 0
usemtl low_poly_dog
f 21/1/1 20/2/1 11/3/1 14/4/1
f 20/2/2 19/5/2 12/6/2 11/3/2
f 10/11/4 9/12/4 14/4/4 15/13/4
f 15/13/5 14/4/5 11/3/5 13/14/5
f 11/3/6 12/6/6 16/10/6 13/14/6
f 19/5/9 17/7/9 16/10/9 12/6/9
f 9/12/10 21/1/10 14/4/10
f 1/18/11 6/19/11 21/1/11 9/12/11
f 3/20/12 1/18/12 9/12/12 10/11/12
f 4/21/13 8/22/13 17/7/13 19/5/13
f 2/26/17 4/21/17 19/5/17 20/2/17
f 6/19/18 2/26/18 20/2/18 21/1/18
usemtl low_poly_dog.002
f 17/7/3 18/8/3 13/9/3 16/10/3
f 18/8/7 22/15/7 15/16/7 13/9/7
f 22/15/8 10/17/8 15/16/8
f 7/23/14 3/24/14 10/17/14 22/15/14
f 5/25/15 7/23/15 22/15/15 18/8/15
f 8/22/16 5/25/16 18/8/16 17/7/16
