# Blender 5.1.1
# www.blender.org
mtllib zampa_sx_die_dog.mtl
o zampa_sx_die
v 0.021211 0.389667 -0.182840
v 0.078087 0.332255 -0.057835
v 0.007167 0.334774 -0.140235
v 0.068302 0.383870 -0.168258
v 0.096017 0.386648 -0.086757
v 0.038456 0.304470 -0.056959
v 0.051343 0.162534 -0.234503
v 0.040670 0.154036 -0.207109
v 0.078994 0.164350 -0.234503
v 0.090116 0.156765 -0.207109
v 0.078994 0.150407 -0.179244
v 0.051343 0.148137 -0.179244
v 0.046370 0.199786 -0.107573
v 0.026003 0.229764 -0.176297
v 0.081335 0.250072 -0.192721
v 0.098790 0.234247 -0.161923
v 0.044761 0.250720 -0.199784
v 0.089730 0.209145 -0.115068
v 0.055232 0.034747 -0.220995
v 0.045092 0.037157 -0.198880
v 0.081502 0.034747 -0.220995
v 0.092069 0.037157 -0.198880
v 0.081502 0.039609 -0.176385
v 0.055232 0.039609 -0.176385
v 0.054297 0.000000 -0.220994
v 0.044228 0.000000 -0.204063
v 0.083541 0.000000 -0.220994
v 0.093254 0.000000 -0.204063
v 0.038363 0.021244 -0.183051
v 0.098589 0.021244 -0.183051
v 0.082389 0.018442 -0.154508
v 0.054202 0.018442 -0.154508
v 0.038363 0.000000 -0.183051
v 0.098589 0.000000 -0.183051
v 0.083541 0.000000 -0.154508
v 0.054297 0.000000 -0.154508
v 0.037405 0.272689 -0.063312
v 0.078904 0.321351 -0.177344
v 0.011114 0.285758 -0.153628
v 0.099842 0.322964 -0.127797
v 0.034780 0.320675 -0.192149
v 0.084915 0.288761 -0.069798
vn -0.9395 -0.2779 0.2004
vn 0.9168 0.0369 0.3977
vn 0.9151 -0.0188 -0.4028
vn 0.9032 0.1340 -0.4079
vn -0.8810 0.0727 -0.4675
vn 0.9549 -0.2564 0.1499
vn 0.1902 -0.7658 0.6142
vn 0.0928 0.4028 -0.9106
vn 0.2574 0.1774 -0.9499
vn 0.2614 -0.4710 0.8425
vn 0.9802 -0.0662 0.1868
vn -0.8158 -0.0220 -0.5780
vn -0.9356 -0.2973 0.1902
vn 0.9100 0.1455 -0.3883
vn -0.0000 0.7187 0.6954
vn -0.0000 -1.0000 -0.0000
vn -0.9169 -0.0661 -0.3936
vn -0.9244 -0.0153 0.3810
vn -0.0011 0.0260 0.9997
vn 0.0035 -0.1043 -0.9945
vn -0.0000 -0.0000 -1.0000
vn 0.8832 0.0730 -0.4632
vn -0.7454 0.5456 0.3831
vn -0.8853 0.0554 -0.4616
vn -0.0000 -0.0000 1.0000
vn -0.8738 -0.0021 0.4862
vn 0.8764 0.0254 0.4810
vn 0.9565 0.0450 -0.2884
vn -0.9508 0.0413 -0.3071
vn 0.7402 0.5464 0.3919
vn -0.8869 -0.0431 -0.4600
vn 0.9513 -0.0554 0.3032
vn 0.1907 -0.2182 0.9571
vn 0.3107 0.1874 -0.9318
vn 0.9073 0.2407 -0.3449
vn -0.9514 -0.1048 0.2894
vt 0.320894 0.817154
vt 0.299086 0.749584
vt 0.347748 0.732106
vt 0.368933 0.784717
vt 0.479787 0.782242
vt 0.456145 0.758246
vt 0.552164 0.672315
vt 0.569758 0.691917
vt 0.499267 0.803509
vt 0.585882 0.710966
vt 0.360215 0.896740
vt 0.416210 0.841039
vt 0.439737 0.866165
vt 0.400063 0.917920
vt 0.503097 0.898066
vt 0.468852 0.888376
vt 0.518288 0.818093
vt 0.541306 0.831894
vt 0.386748 0.811484
vt 0.436609 0.733497
vt 0.431428 0.943430
vt 0.334147 0.850635
vt 0.481463 0.950401
vt 0.418347 0.705213
vt 0.531888 0.654178
vt 0.553078 0.637612
vt 0.566584 0.650290
vt 0.663328 0.699178
vt 0.628260 0.657930
vt 0.656571 0.651617
vt 0.673599 0.671646
vt 0.603353 0.731247
vt 0.618399 0.749240
vt 0.514288 0.637573
vt 0.645522 0.707396
vt 0.616976 0.673819
vt 0.611036 0.690329
vt 0.628063 0.710358
vt 0.600813 0.677251
vt 0.531276 0.629801
vt 0.640036 0.723374
vt 0.561402 0.626927
vt 0.576965 0.642318
vt 0.538470 0.614087
vt 0.576613 0.671655
vt 0.590921 0.662286
vt 0.521145 0.607206
vt 0.458946 0.988987
vt 0.397491 0.995345
vt 0.304651 0.926486
vt 0.304713 0.871941
vt 0.299184 0.830545
vt 0.368756 0.963266
vt 0.262169 0.765941
s 0
usemtl low_poly_dog
f 37/1/1 39/2/1 14/3/1 13/4/1
f 10/5/2 11/6/2 23/7/2 22/8/2
f 9/9/3 10/5/3 22/8/3 21/10/3
f 40/11/4 16/12/4 15/13/4 38/14/4
f 14/15/5 17/16/5 7/17/5 8/18/5
f 16/12/6 18/19/6 11/6/6 10/5/6
f 18/19/7 13/4/7 12/20/7 11/6/7
f 17/16/8 15/13/8 9/9/8 7/17/8
f 41/21/9 38/14/9 15/13/9 17/16/9
f 42/22/10 37/1/10 13/4/10 18/19/10
f 40/11/11 42/22/11 18/19/11 16/12/11
f 39/23/12 41/21/12 17/16/12 14/15/12
f 14/3/13 8/24/13 12/20/13 13/4/13
f 15/13/14 16/12/14 10/5/14 9/9/14
f 8/18/17 7/17/17 19/32/17 20/33/17
f 12/20/18 8/24/18 20/34/18 24/25/18
f 11/6/19 12/20/19 24/25/19 23/7/19
f 7/17/20 9/9/20 21/10/20 19/32/20
f 3/48/31 1/49/31 41/21/31 39/23/31
f 5/50/32 2/51/32 42/22/32 40/11/32
f 2/51/33 6/52/33 37/1/33 42/22/33
f 1/49/34 4/53/34 38/14/34 41/21/34
f 5/50/35 40/11/35 38/14/35 4/53/35
f 6/52/36 3/54/36 39/2/36 37/1/36
usemtl low_poly_dog.002
f 23/7/15 24/25/15 32/26/15 31/27/15
f 33/28/16 34/29/16 35/30/16 36/31/16
f 26/35/16 28/36/16 34/29/16 33/28/16
f 19/32/21 21/10/21 27/37/21 25/38/21
f 21/10/22 22/8/22 28/39/22 27/37/22
f 24/25/23 20/34/23 29/40/23 32/26/23
f 20/33/24 19/32/24 25/38/24 26/41/24
f 31/27/25 32/26/25 36/42/25 35/43/25
f 32/26/26 29/40/26 33/44/26 36/42/26
f 30/45/27 31/27/27 35/43/27 34/46/27
f 28/39/28 22/8/28 30/45/28 34/46/28
f 25/38/16 27/37/16 28/36/16 26/35/16
f 20/34/29 26/47/29 33/44/29 29/40/29
f 22/8/30 23/7/30 31/27/30 30/45/30
